<mxfile host="65bd71144e">
    <diagram id="cDdzko3fgtNw38f7ynOY" name="Page-1">
        <mxGraphModel dx="960" dy="712" grid="1" gridSize="10" guides="1" tooltips="1" connect="1" arrows="1" fold="1" page="1" pageScale="1" pageWidth="850" pageHeight="1100" math="0" shadow="0">
            <root>
                <mxCell id="0"/>
                <mxCell id="1" parent="0"/>
                <mxCell id="2" value="Passenger" style="shape=umlActor;" vertex="1" parent="1">
                    <mxGeometry x="20" y="100" width="40" height="80" as="geometry"/>
                </mxCell>
                <mxCell id="3" value="Admin" style="shape=umlActor;" vertex="1" parent="1">
                    <mxGeometry x="20" y="300" width="40" height="80" as="geometry"/>
                </mxCell>
                <mxCell id="4" value="Search Flights" style="ellipse" vertex="1" parent="1">
                    <mxGeometry x="150" y="50" width="120" height="60" as="geometry"/>
                </mxCell>
                <mxCell id="5" value="Book Ticket" style="ellipse" vertex="1" parent="1">
                    <mxGeometry x="150" y="150" width="120" height="60" as="geometry"/>
                </mxCell>
                <mxCell id="6" value="Cancel Ticket" style="ellipse" vertex="1" parent="1">
                    <mxGeometry x="150" y="250" width="120" height="60" as="geometry"/>
                </mxCell>
                <mxCell id="7" value="Make Payment" style="ellipse" vertex="1" parent="1">
                    <mxGeometry x="340" y="90" width="120" height="60" as="geometry"/>
                </mxCell>
                <mxCell id="8" value="Manage Flights" style="ellipse" vertex="1" parent="1">
                    <mxGeometry x="150" y="400" width="120" height="60" as="geometry"/>
                </mxCell>
                <mxCell id="9" edge="1" parent="1" source="2" target="4">
                    <mxGeometry relative="1" as="geometry"/>
                </mxCell>
                <mxCell id="10" edge="1" parent="1" source="2" target="5">
                    <mxGeometry relative="1" as="geometry"/>
                </mxCell>
                <mxCell id="11" edge="1" parent="1" source="2" target="6">
                    <mxGeometry relative="1" as="geometry"/>
                </mxCell>
                <mxCell id="12" edge="1" parent="1" source="2" target="7">
                    <mxGeometry relative="1" as="geometry"/>
                </mxCell>
                <mxCell id="13" edge="1" parent="1" source="3" target="8">
                    <mxGeometry relative="1" as="geometry"/>
                </mxCell>
                <mxCell id="14" value="&lt;&lt;include&gt;&gt;" edge="1" parent="1" source="5" target="7">
                    <mxGeometry relative="1" as="geometry"/>
                </mxCell>
                <mxCell id="15" value="&lt;&lt;extend&gt;&gt;" edge="1" parent="1" source="6" target="5">
                    <mxGeometry relative="1" as="geometry"/>
                </mxCell>
            </root>
        </mxGraphModel>
    </diagram>
</mxfile>